<svg width="106" height="107" viewBox="0 0 106 107" fill="none" xmlns="http://www.w3.org/2000/svg">
<rect y="0.563232" width="106" height="106" rx="10" fill="white"/>
<path d="M23.08 69.5632V38.7632H37.16C39.976 38.7632 42.396 39.2179 44.42 40.1272C46.4733 41.0366 48.0573 42.3566 49.172 44.0872C50.2867 45.7886 50.844 47.8126 50.844 50.1592C50.844 52.4766 50.2867 54.4859 49.172 56.1872C48.0573 57.8886 46.4733 59.2086 44.42 60.1472C42.396 61.0566 39.976 61.5112 37.16 61.5112H27.92L31.792 57.7272V69.5632H23.08ZM31.792 58.6512L27.92 54.6472H36.632C38.4507 54.6472 39.8 54.2512 40.68 53.4592C41.5893 52.6672 42.044 51.5672 42.044 50.1592C42.044 48.7219 41.5893 47.6072 40.68 46.8152C39.8 46.0232 38.4507 45.6272 36.632 45.6272H27.92L31.792 41.6232V58.6512ZM69.0029 70.1792C64.4563 70.1792 60.9069 68.9326 58.3549 66.4392C55.8029 63.9459 54.5269 60.4112 54.5269 55.8352V38.7632H63.2389V55.5712C63.2389 58.2112 63.7523 60.1032 64.7789 61.2472C65.8349 62.3912 67.2723 62.9632 69.0909 62.9632C70.9096 62.9632 72.3323 62.3912 73.3589 61.2472C74.3856 60.1032 74.8989 58.2112 74.8989 55.5712V38.7632H83.4789V55.8352C83.4789 60.4112 82.2029 63.9459 79.6509 66.4392C77.0989 68.9326 73.5496 70.1792 69.0029 70.1792Z" fill="black"/>
</svg>
