<svg width="106" height="107" viewBox="0 0 106 107" fill="none" xmlns="http://www.w3.org/2000/svg">
<rect y="0.126465" width="106" height="106" rx="10" fill="white"/>
<path d="M37.48 69.7425C35.0453 69.7425 32.7867 69.3611 30.704 68.5985C28.6213 67.8065 26.8173 66.6918 25.292 65.2545C23.796 63.8171 22.6227 62.1305 21.772 60.1945C20.9213 58.2291 20.496 56.0731 20.496 53.7265C20.496 51.3798 20.9213 49.2385 21.772 47.3025C22.6227 45.3371 23.8107 43.6358 25.336 42.1985C26.8613 40.7611 28.6653 39.6611 30.748 38.8985C32.86 38.1065 35.1627 37.7105 37.656 37.7105C40.56 37.7105 43.156 38.1945 45.444 39.1625C47.732 40.1305 49.624 41.5238 51.12 43.3425L45.576 48.3585C44.52 47.2145 43.376 46.3638 42.144 45.8065C40.9413 45.2198 39.592 44.9265 38.096 44.9265C36.776 44.9265 35.5733 45.1318 34.488 45.5425C33.4027 45.9531 32.4787 46.5545 31.716 47.3465C30.9533 48.1091 30.352 49.0331 29.912 50.1185C29.5013 51.1745 29.296 52.3771 29.296 53.7265C29.296 55.0171 29.5013 56.2051 29.912 57.2905C30.352 58.3758 30.9533 59.3145 31.716 60.1065C32.4787 60.8691 33.388 61.4705 34.444 61.9105C35.5293 62.3211 36.7173 62.5265 38.008 62.5265C39.2987 62.5265 40.56 62.3211 41.792 61.9105C43.024 61.4705 44.2707 60.7371 45.532 59.7105L50.416 65.8265C48.656 67.0878 46.6173 68.0558 44.3 68.7305C41.9827 69.4051 39.7093 69.7425 37.48 69.7425ZM42.716 64.6825V53.0665H50.416V65.8265L42.716 64.6825ZM55.9394 69.1265V38.3265H64.6514V62.2185H79.3474V69.1265H55.9394Z" fill="black"/>
</svg>
