<svg width="106" height="107" viewBox="0 0 106 107" fill="none" xmlns="http://www.w3.org/2000/svg">
<rect y="0.126465" width="106" height="106" rx="10" fill="white"/>
<path d="M31.176 51.8345H45.388V58.5665H31.176V51.8345ZM31.792 69.1265H23.08V38.3265H47.236V45.0585H31.792V69.1265ZM66.5847 69.7425C64.1207 69.7425 61.8473 69.3465 59.7647 68.5545C57.682 67.7625 55.8633 66.6478 54.3087 65.2105C52.7833 63.7438 51.5953 62.0425 50.7447 60.1065C49.894 58.1705 49.4687 56.0438 49.4687 53.7265C49.4687 51.4091 49.894 49.2825 50.7447 47.3465C51.5953 45.4105 52.7833 43.7238 54.3087 42.2865C55.8633 40.8198 57.682 39.6905 59.7647 38.8985C61.8473 38.1065 64.1207 37.7105 66.5847 37.7105C69.078 37.7105 71.3513 38.1065 73.4047 38.8985C75.4873 39.6905 77.2913 40.8198 78.8167 42.2865C80.342 43.7238 81.53 45.4105 82.3807 47.3465C83.2607 49.2825 83.7007 51.4091 83.7007 53.7265C83.7007 56.0438 83.2607 58.1851 82.3807 60.1505C81.53 62.0865 80.342 63.7731 78.8167 65.2105C77.2913 66.6478 75.4873 67.7625 73.4047 68.5545C71.3513 69.3465 69.078 69.7425 66.5847 69.7425ZM66.5847 62.5265C67.758 62.5265 68.8433 62.3211 69.8407 61.9105C70.8673 61.4998 71.7473 60.9131 72.4807 60.1505C73.2433 59.3585 73.83 58.4198 74.2407 57.3345C74.6807 56.2491 74.9007 55.0465 74.9007 53.7265C74.9007 52.3771 74.6807 51.1745 74.2407 50.1185C73.83 49.0331 73.2433 48.1091 72.4807 47.3465C71.7473 46.5545 70.8673 45.9531 69.8407 45.5425C68.8433 45.1318 67.758 44.9265 66.5847 44.9265C65.4113 44.9265 64.3113 45.1318 63.2847 45.5425C62.2873 45.9531 61.4073 46.5545 60.6447 47.3465C59.9113 48.1091 59.3247 49.0331 58.8847 50.1185C58.474 51.1745 58.2687 52.3771 58.2687 53.7265C58.2687 55.0465 58.474 56.2491 58.8847 57.3345C59.3247 58.4198 59.9113 59.3585 60.6447 60.1505C61.4073 60.9131 62.2873 61.4998 63.2847 61.9105C64.3113 62.3211 65.4113 62.5265 66.5847 62.5265Z" fill="black"/>
</svg>
