<svg width="106" height="107" viewBox="0 0 106 107" fill="none" xmlns="http://www.w3.org/2000/svg">
<rect y="0.126465" width="106" height="106" rx="10" fill="white"/>
<path d="M25.08 69.1265V38.3265H39.16C41.976 38.3265 44.396 38.7811 46.42 39.6905C48.4733 40.5998 50.0573 41.9198 51.172 43.6505C52.2867 45.3518 52.844 47.3758 52.844 49.7225C52.844 52.0398 52.2867 54.0491 51.172 55.7505C50.0573 57.4518 48.4733 58.7718 46.42 59.7105C44.396 60.6198 41.976 61.0745 39.16 61.0745H29.92L33.792 57.2905V69.1265H25.08ZM33.792 58.2145L29.92 54.2105H38.632C40.4507 54.2105 41.8 53.8145 42.68 53.0225C43.5893 52.2305 44.044 51.1305 44.044 49.7225C44.044 48.2851 43.5893 47.1705 42.68 46.3785C41.8 45.5865 40.4507 45.1905 38.632 45.1905H29.92L33.792 41.1865V58.2145ZM65.0997 50.2505H79.3997V56.7625H65.0997V50.2505ZM65.7157 62.3945H81.8197V69.1265H57.0917V38.3265H81.2477V45.0585H65.7157V62.3945Z" fill="black"/>
</svg>
